<?xml version="1.0" encoding="UTF-8" standalone="no"?>
<!DOCTYPE svg PUBLIC "-//W3C//DTD SVG 1.1//EN" "http://www.w3.org/Graphics/SVG/1.1/DTD/svg11.dtd">
<svg width="100%" height="100%" viewBox="0 0 626 266" version="1.1" xmlns="http://www.w3.org/2000/svg" xmlns:xlink="http://www.w3.org/1999/xlink" xml:space="preserve" xmlns:serif="http://www.serif.com/" style="fill-rule:evenodd;clip-rule:evenodd;stroke-linejoin:round;stroke-miterlimit:2;">
    <g transform="matrix(1,0,0,1,-549.934,-605.375)">
        <g transform="matrix(0.957068,0,0,0.957068,23.6096,31.6951)">
            <g transform="matrix(2.61055,0,0,2.61055,-536.653,-100.658)">
                <g transform="matrix(71.4036,0,0,71.4036,412.43,321.723)">
                    <rect x="0.053" y="-0.736" width="0.133" height="0.736" style="fill:white;fill-rule:nonzero;"/>
                </g>
                <g transform="matrix(71.4036,0,0,71.4036,428.478,321.723)">
                    <path d="M0.067,-0.531L0.202,-0.531L0.202,-0.275C0.202,-0.226 0.205,-0.191 0.212,-0.172C0.219,-0.152 0.23,-0.137 0.245,-0.126C0.26,-0.116 0.279,-0.11 0.301,-0.11C0.323,-0.11 0.342,-0.116 0.357,-0.126C0.373,-0.137 0.384,-0.152 0.392,-0.173C0.397,-0.188 0.4,-0.221 0.4,-0.271L0.4,-0.531L0.534,-0.531L0.534,-0.306C0.534,-0.213 0.526,-0.15 0.512,-0.116C0.494,-0.074 0.467,-0.042 0.433,-0.02C0.398,0.003 0.354,0.014 0.3,0.014C0.242,0.014 0.194,0.001 0.158,-0.025C0.122,-0.051 0.097,-0.088 0.083,-0.134C0.072,-0.167 0.067,-0.225 0.067,-0.31L0.067,-0.531Z" style="fill:white;fill-rule:nonzero;"/>
                </g>
                <g transform="matrix(71.4036,0,0,71.4036,469.542,321.723)">
                    <path d="M0.066,-0.531L0.2,-0.531L0.2,-0.47C0.223,-0.495 0.248,-0.514 0.276,-0.526C0.304,-0.539 0.334,-0.545 0.367,-0.545C0.4,-0.545 0.43,-0.537 0.457,-0.521C0.484,-0.504 0.505,-0.48 0.521,-0.449C0.543,-0.48 0.569,-0.504 0.599,-0.521C0.63,-0.537 0.664,-0.545 0.7,-0.545C0.738,-0.545 0.771,-0.536 0.8,-0.519C0.828,-0.501 0.849,-0.478 0.862,-0.45C0.874,-0.421 0.88,-0.375 0.88,-0.312L0.88,-0L0.746,-0L0.746,-0.27C0.746,-0.33 0.739,-0.371 0.724,-0.392C0.709,-0.413 0.686,-0.424 0.656,-0.424C0.633,-0.424 0.613,-0.417 0.595,-0.404C0.577,-0.391 0.563,-0.373 0.555,-0.35C0.546,-0.327 0.542,-0.291 0.542,-0.24L0.542,-0L0.407,-0L0.407,-0.257C0.407,-0.305 0.404,-0.339 0.397,-0.361C0.39,-0.382 0.379,-0.398 0.365,-0.408C0.351,-0.419 0.334,-0.424 0.314,-0.424C0.292,-0.424 0.272,-0.417 0.254,-0.404C0.236,-0.391 0.223,-0.372 0.214,-0.349C0.205,-0.325 0.2,-0.287 0.2,-0.236L0.2,-0L0.066,-0L0.066,-0.531Z" style="fill:white;fill-rule:nonzero;"/>
                </g>
                <g transform="matrix(71.4036,0,0,71.4036,535.586,321.723)">
                    <path d="M0.12,-0.75C0.143,-0.75 0.163,-0.742 0.18,-0.725C0.197,-0.708 0.205,-0.687 0.205,-0.663C0.205,-0.639 0.197,-0.619 0.18,-0.602C0.164,-0.586 0.144,-0.577 0.121,-0.577C0.097,-0.577 0.077,-0.586 0.06,-0.603C0.043,-0.62 0.035,-0.641 0.035,-0.665C0.035,-0.688 0.043,-0.708 0.06,-0.725C0.076,-0.742 0.096,-0.75 0.12,-0.75ZM0.053,-0.531L0.187,-0.531L0.187,-0L0.053,-0L0.053,-0.531Z" style="fill:white;fill-rule:nonzero;"/>
                </g>
                <g transform="matrix(71.4036,0,0,71.4036,551.633,321.723)">
                    <path d="M0.067,-0.531L0.2,-0.531L0.2,-0.477C0.23,-0.502 0.258,-0.52 0.282,-0.53C0.307,-0.54 0.332,-0.545 0.358,-0.545C0.411,-0.545 0.455,-0.527 0.492,-0.49C0.523,-0.458 0.539,-0.412 0.539,-0.351L0.539,-0L0.407,-0L0.407,-0.233C0.407,-0.296 0.404,-0.339 0.398,-0.359C0.392,-0.38 0.383,-0.396 0.368,-0.407C0.354,-0.418 0.337,-0.423 0.316,-0.423C0.289,-0.423 0.266,-0.414 0.246,-0.396C0.227,-0.378 0.214,-0.353 0.206,-0.321C0.202,-0.305 0.2,-0.269 0.2,-0.213L0.2,-0L0.067,-0L0.067,-0.531Z" style="fill:white;fill-rule:nonzero;"/>
                </g>
                <g transform="matrix(71.4036,0,0,71.4036,593.411,321.723)">
                    <path d="M0.317,-0.545C0.367,-0.545 0.414,-0.532 0.458,-0.507C0.502,-0.482 0.537,-0.448 0.562,-0.405C0.586,-0.362 0.599,-0.316 0.599,-0.266C0.599,-0.216 0.586,-0.169 0.561,-0.125C0.536,-0.082 0.502,-0.048 0.459,-0.023C0.417,0.001 0.369,0.014 0.317,0.014C0.241,0.014 0.176,-0.013 0.122,-0.068C0.068,-0.122 0.042,-0.188 0.042,-0.265C0.042,-0.348 0.072,-0.417 0.133,-0.473C0.186,-0.521 0.248,-0.545 0.317,-0.545ZM0.319,-0.419C0.278,-0.419 0.243,-0.405 0.216,-0.376C0.188,-0.347 0.174,-0.311 0.174,-0.266C0.174,-0.219 0.188,-0.182 0.215,-0.153C0.242,-0.125 0.277,-0.11 0.318,-0.11C0.36,-0.11 0.395,-0.125 0.422,-0.154C0.45,-0.183 0.464,-0.22 0.464,-0.266C0.464,-0.311 0.45,-0.348 0.423,-0.377C0.396,-0.405 0.361,-0.419 0.319,-0.419Z" style="fill:white;fill-rule:nonzero;"/>
                </g>
                <g transform="matrix(71.4036,0,0,71.4036,638.048,321.723)">
                    <path d="M0.393,-0.457L0.31,-0.375C0.277,-0.408 0.246,-0.424 0.219,-0.424C0.204,-0.424 0.192,-0.421 0.184,-0.415C0.175,-0.408 0.171,-0.401 0.171,-0.391C0.171,-0.384 0.174,-0.377 0.179,-0.371C0.184,-0.365 0.198,-0.357 0.219,-0.347L0.268,-0.322C0.319,-0.297 0.354,-0.271 0.374,-0.245C0.393,-0.218 0.402,-0.187 0.402,-0.152C0.402,-0.105 0.385,-0.065 0.35,-0.034C0.316,-0.002 0.269,0.014 0.211,0.014C0.133,0.014 0.072,-0.017 0.025,-0.077L0.107,-0.167C0.123,-0.148 0.141,-0.134 0.162,-0.122C0.183,-0.111 0.202,-0.105 0.218,-0.105C0.236,-0.105 0.25,-0.11 0.261,-0.118C0.271,-0.127 0.277,-0.136 0.277,-0.147C0.277,-0.168 0.257,-0.188 0.219,-0.208L0.174,-0.23C0.088,-0.273 0.045,-0.327 0.045,-0.393C0.045,-0.435 0.061,-0.47 0.094,-0.5C0.126,-0.53 0.167,-0.545 0.218,-0.545C0.252,-0.545 0.285,-0.537 0.315,-0.522C0.346,-0.507 0.371,-0.485 0.393,-0.457Z" style="fill:white;fill-rule:nonzero;"/>
                </g>
            </g>
            <g transform="matrix(1.37083,0,0,1.39478,979.502,847.339)">
                <g transform="matrix(66.4292,0,0,66.4292,0,0)">
                    <path d="M0.067,-0.531L0.2,-0.531L0.2,-0.477C0.23,-0.502 0.258,-0.52 0.282,-0.53C0.307,-0.54 0.332,-0.545 0.358,-0.545C0.411,-0.545 0.455,-0.527 0.492,-0.49C0.523,-0.458 0.539,-0.412 0.539,-0.351L0.539,-0L0.407,-0L0.407,-0.233C0.407,-0.296 0.404,-0.339 0.398,-0.359C0.392,-0.38 0.383,-0.396 0.368,-0.407C0.354,-0.418 0.337,-0.423 0.316,-0.423C0.289,-0.423 0.266,-0.414 0.246,-0.396C0.227,-0.378 0.214,-0.353 0.206,-0.321C0.202,-0.305 0.2,-0.269 0.2,-0.213L0.2,-0L0.067,-0L0.067,-0.531Z" style="fill:rgb(250,179,6);fill-rule:nonzero;"/>
                </g>
                <g transform="matrix(66.4292,0,0,66.4292,40.5283,0)">
                    <path d="M0.6,-0.227L0.171,-0.227C0.178,-0.189 0.194,-0.159 0.221,-0.137C0.248,-0.115 0.282,-0.104 0.324,-0.104C0.374,-0.104 0.416,-0.121 0.452,-0.156L0.564,-0.103C0.536,-0.063 0.503,-0.034 0.464,-0.015C0.425,0.004 0.378,0.014 0.325,0.014C0.241,0.014 0.174,-0.013 0.121,-0.065C0.069,-0.118 0.042,-0.184 0.042,-0.263C0.042,-0.344 0.069,-0.411 0.121,-0.465C0.173,-0.518 0.239,-0.545 0.317,-0.545C0.401,-0.545 0.469,-0.518 0.521,-0.465C0.574,-0.411 0.6,-0.34 0.6,-0.252L0.6,-0.227ZM0.466,-0.332C0.457,-0.362 0.44,-0.386 0.414,-0.404C0.388,-0.423 0.358,-0.432 0.324,-0.432C0.287,-0.432 0.254,-0.422 0.226,-0.401C0.208,-0.388 0.192,-0.365 0.177,-0.332L0.466,-0.332Z" style="fill:rgb(250,179,6);fill-rule:nonzero;"/>
                </g>
                <g transform="matrix(66.4292,0,0,66.4292,83.7164,0)">
                    <path d="M0.036,-0.531L0.15,-0.531L0.15,-0.464C0.163,-0.491 0.179,-0.511 0.2,-0.524C0.22,-0.538 0.243,-0.545 0.267,-0.545C0.284,-0.545 0.302,-0.54 0.321,-0.531L0.28,-0.417C0.264,-0.424 0.251,-0.428 0.241,-0.428C0.221,-0.428 0.203,-0.416 0.189,-0.39C0.175,-0.365 0.168,-0.315 0.168,-0.241L0.168,-0.215L0.168,-0L0.036,-0L0.036,-0.531Z" style="fill:rgb(250,179,6);fill-rule:nonzero;"/>
                </g>
                <g transform="matrix(66.4292,0,0,66.4292,105.626,0)">
                    <path d="M0.46,-0.531L0.593,-0.531L0.593,-0.076C0.593,0.014 0.575,0.08 0.539,0.122C0.49,0.179 0.417,0.208 0.319,0.208C0.267,0.208 0.223,0.201 0.188,0.188C0.153,0.175 0.123,0.156 0.098,0.131C0.074,0.106 0.056,0.075 0.044,0.039L0.191,0.039C0.204,0.054 0.221,0.065 0.241,0.073C0.262,0.081 0.286,0.084 0.314,0.084C0.35,0.084 0.379,0.079 0.4,0.068C0.422,0.057 0.438,0.042 0.447,0.025C0.455,0.007 0.46,-0.023 0.46,-0.066C0.437,-0.042 0.412,-0.026 0.386,-0.015C0.361,-0.005 0.331,-0 0.299,-0C0.228,-0 0.167,-0.026 0.118,-0.077C0.069,-0.129 0.044,-0.194 0.044,-0.272C0.044,-0.357 0.07,-0.424 0.123,-0.476C0.17,-0.522 0.226,-0.545 0.292,-0.545C0.322,-0.545 0.351,-0.539 0.378,-0.528C0.405,-0.517 0.433,-0.498 0.46,-0.473L0.46,-0.531ZM0.322,-0.42C0.28,-0.42 0.245,-0.406 0.218,-0.378C0.19,-0.35 0.177,-0.315 0.177,-0.272C0.177,-0.228 0.191,-0.191 0.219,-0.163C0.247,-0.135 0.282,-0.121 0.324,-0.121C0.366,-0.121 0.4,-0.134 0.427,-0.162C0.453,-0.19 0.467,-0.226 0.467,-0.271C0.467,-0.315 0.453,-0.351 0.426,-0.379C0.399,-0.407 0.364,-0.42 0.322,-0.42Z" style="fill:rgb(250,179,6);fill-rule:nonzero;"/>
                </g>
                <g transform="matrix(66.4292,0,0,66.4292,150.144,0)">
                    <path d="M0.12,-0.75C0.143,-0.75 0.163,-0.742 0.18,-0.725C0.197,-0.708 0.205,-0.687 0.205,-0.663C0.205,-0.639 0.197,-0.619 0.18,-0.602C0.164,-0.586 0.144,-0.577 0.121,-0.577C0.097,-0.577 0.077,-0.586 0.06,-0.603C0.043,-0.62 0.035,-0.641 0.035,-0.665C0.035,-0.688 0.043,-0.708 0.06,-0.725C0.076,-0.742 0.096,-0.75 0.12,-0.75ZM0.053,-0.531L0.187,-0.531L0.187,-0L0.053,-0L0.053,-0.531Z" style="fill:rgb(250,179,6);fill-rule:nonzero;"/>
                </g>
            </g>
            <g transform="matrix(2.66896,0,0,2.71558,379.008,220.057)">
                <path d="M223.839,232.919L221.414,235.344C217.842,239.4 212.611,241.961 206.787,241.961C196.031,241.961 187.3,233.229 187.3,222.474C187.3,211.719 196.031,202.987 206.787,202.987C214.111,202.987 220.497,207.037 223.826,213.017L220.194,216.65L220.188,216.638L211.947,224.879L208.539,221.471L217.487,212.523C214.818,209.654 211.01,207.859 206.787,207.859C198.72,207.859 192.171,214.407 192.171,222.474C192.171,230.54 198.72,237.089 206.787,237.089C211.169,237.089 215.103,235.156 217.783,232.097L223.839,226.041L223.839,232.919Z" style="fill:rgb(250,179,6);"/>
            </g>
        </g>
    </g>
</svg>
